<svg width="56" height="56" viewBox="0 0 56 56" fill="none" xmlns="http://www.w3.org/2000/svg">
<rect width="56" height="56" rx="10" fill="#1F1D2B"/>
<path d="M27.331 18.0215C29.7103 18.0215 31.6522 19.8954 31.7612 22.2477L31.766 22.4565V23.3895C31.766 23.8037 31.4302 24.1395 31.016 24.1395C30.6363 24.1395 30.3225 23.8573 30.2729 23.4913L30.266 23.3895V22.4565C30.266 20.8936 29.044 19.6157 27.5035 19.5265L27.331 19.5215H22.456C20.894 19.5215 19.6163 20.7436 19.527 22.2841L19.522 22.4565V33.5865C19.522 35.1493 20.7439 36.4272 22.2837 36.5165L22.456 36.5215H27.341C28.8984 36.5215 30.1721 35.3039 30.2611 33.7693L30.266 33.5975V32.6545C30.266 32.2403 30.6018 31.9045 31.016 31.9045C31.3957 31.9045 31.7095 32.1866 31.7592 32.5527L31.766 32.6545V33.5975C31.766 35.9687 29.8992 37.9046 27.5554 38.0164L27.341 38.0215H22.456C20.0776 38.0215 18.1359 36.1474 18.0269 33.7952L18.022 33.5865V22.4565C18.022 20.0774 19.8958 18.1353 22.2473 18.0263L22.456 18.0215H27.331ZM35.3261 24.5023L35.4104 24.5748L38.3384 27.4898C38.3647 27.5159 38.3879 27.5426 38.4091 27.5707L38.3384 27.4898C38.3689 27.5202 38.3963 27.5526 38.4205 27.5865C38.4376 27.6103 38.4534 27.6354 38.4677 27.6614C38.4703 27.6665 38.4729 27.6715 38.4755 27.6764C38.4881 27.7004 38.4994 27.7253 38.5092 27.7508C38.5133 27.762 38.5173 27.7733 38.5211 27.7847C38.5284 27.8058 38.5346 27.8274 38.5397 27.8494C38.5421 27.8612 38.5446 27.8729 38.5467 27.8846C38.5509 27.905 38.5538 27.9261 38.5559 27.9474C38.5571 27.9623 38.5581 27.977 38.5586 27.9917C38.5593 28.0016 38.5595 28.0115 38.5595 28.0214L38.5587 28.0497C38.5581 28.0651 38.5571 28.0805 38.5555 28.0958L38.5595 28.0214C38.5595 28.0682 38.5552 28.1141 38.547 28.1585C38.5446 28.1696 38.5421 28.1814 38.5394 28.193C38.5344 28.2162 38.528 28.2387 38.5205 28.2607C38.5167 28.2709 38.513 28.2813 38.5091 28.2915C38.4998 28.3164 38.489 28.3405 38.4769 28.3639C38.4739 28.3692 38.4708 28.3751 38.4676 28.381C38.4331 28.4443 38.39 28.5015 38.3399 28.5517L38.3385 28.5527L35.4105 31.4687C35.117 31.761 34.6421 31.76 34.3498 31.4665C34.0841 31.1997 34.0607 30.783 34.2792 30.4898L34.352 30.4059L35.991 28.7705L25.7685 28.7714C25.3543 28.7714 25.0185 28.4356 25.0185 28.0214C25.0185 27.6417 25.3007 27.3279 25.6668 27.2782L25.7685 27.2714L35.993 27.2705L34.3521 25.6378C34.0852 25.3721 34.0601 24.9555 34.2773 24.6614L34.3497 24.5771C34.6154 24.3103 35.032 24.2851 35.3261 24.5023Z" fill="currentColor"/>
</svg>
